HIERARCHY
ROOT Hips
{
	OFFSET 0.00000 0.00000 0.00000
	CHANNELS 6 Xposition Yposition Zposition Yrotation Zrotation Xrotation 
	JOINT Lumbar
	{
		OFFSET 0 0 0
		CHANNELS 3 Zrotation Xrotation Yrotation
		JOINT Neck
		{
			OFFSET 0.00 0.2701 0.00
			CHANNELS 3 Zrotation Xrotation Yrotation
			End Site
			{
				OFFSET 0.00 0.1379 0.00
			}
		}
		JOINT RightShoulder
		{
			OFFSET 0.0119 0.2289 0.1181
			CHANNELS 3 Zrotation Xrotation Yrotation
			JOINT RightElbow
			{
				OFFSET 0.00 -0.1475 0.00
				CHANNELS 2 Zrotation Yrotation
				JOINT RightWrist
				{
					OFFSET 0.00 -0.1605 0.00
					CHANNELS 2 Zrotation Xrotation
					End Site
					{
						OFFSET 0.0040 -0.1068 0.0006
					}
				}
			}
		}
		JOINT LeftShoulder
		{
			OFFSET 0.0119 0.2289 -0.1181
			CHANNELS 3 Zrotation Xrotation Yrotation
			JOINT LeftElbow
			{
				OFFSET 0.00 -0.1475 0.00
				CHANNELS 2 Zrotation Yrotation
				JOINT LeftWrist
				{
					OFFSET 0.00 -0.1605 0.00
					CHANNELS 2 Zrotation Xrotation
					End Site
					{
						OFFSET 0.0040 -0.1068 -0.0006
					}
				}
			}
		}
	}
	JOINT RightHip
	{
		OFFSET 0.0316 -0.0424 0.0458
		CHANNELS 3 Zrotation Xrotation Yrotation
		JOINT RightKnee
		{
			OFFSET 0.00 -0.2438 0.00
			CHANNELS 1 Zrotation
			JOINT RightAnkle
			{
				OFFSET 0.00 -0.2449 0.00
				CHANNELS 3 Zrotation Xrotation Yrotation
				End Site
				{
					OFFSET 0.1237 -0.0542 0.0051
				}
			}
		}
	}
	JOINT LeftHip
	{
		OFFSET 0.0316 -0.0424 -0.0458
		CHANNELS 3 Zrotation Xrotation Yrotation
		JOINT LeftKnee
		{
			OFFSET 0.00 -0.2438 0.00
			CHANNELS 1 Zrotation
			JOINT LeftAnkle
			{
				OFFSET 0.00 -0.2449 0.00
				CHANNELS 3 Zrotation Xrotation Yrotation
				End Site
				{
					OFFSET 0.1237 -0.0542 -0.0051
				}
			}
		}
	}
}
MOTION
Frames: 29
Frame Time: 0.02
0.01127 -0.40597 0.10482 64.34335 -22.2669 -19.61053 26.32429 11.58145 -24.76694 15.34913 -11.52899 -2.10602 139.03554 -1.50435 55.63236 17.18795 52.04123 43.73905 -6.02694 77.86789 -13.49602 -22.74132 58.88396 -114.76545 -39.00956 7.27588 126.68096 13.69365 37.11851 -139.08461 21.95721 -33.10754 -2.69216 107.17875 2.68628 -4.60207 -147.07827 22.28783 -33.11636 -13.00566
0.01176 -0.40562 0.1062 64.5852 -22.48038 -19.69653 26.32877 11.67153 -25.11722 15.31369 -11.44879 -2.10605 139.47072 -1.7013 55.63324 17.82803 52.16287 43.91024 -5.99906 77.09271 -13.69778 -22.4116 60.53168 -115.34448 -38.50651 7.42364 126.68096 13.69366 37.13137 -139.07556 21.54716 -32.25445 -3.99317 107.98698 2.65828 -3.21349 -147.07827 22.28789 -33.11648 -13.00571
0.01235 -0.40522 0.10768 64.80454 -22.64646 -19.84508 26.2598 11.75715 -25.57409 15.30181 -11.42627 -2.10608 139.9025 -1.88404 55.63333 18.40832 52.36204 44.00451 -5.96334 76.53893 -14.02655 -21.84146 61.65917 -116.42904 -38.21107 7.64479 126.68096 13.69367 37.12737 -139.09137 21.04844 -30.76777 -5.38992 108.80355 2.71707 -2.31349 -147.07827 22.28791 -33.11654 -13.00574
0.01292 -0.40485 0.10908 65.02874 -22.82854 -19.9577 26.22942 11.83336 -25.97118 15.26604 -11.38292 -2.10611 140.32387 -2.06354 55.63309 18.99342 52.54273 44.14057 -5.92944 75.8927 -14.27766 -21.4067 63.00355 -117.21935 -37.80912 7.82226 126.68096 13.69367 37.12686 -139.09796 20.61421 -29.64766 -6.69435 109.59717 2.74403 -1.3166 -147.07827 22.28794 -33.11662 -13.00577
0.01342 -0.40442 0.11064 65.27241 -23.03835 -20.1019 26.17728 11.95569 -26.41814 15.2907 -11.3153 -2.10614 140.79762 -2.28564 55.6333 19.67436 52.65725 44.24535 -5.90307 75.21009 -14.60979 -20.86334 64.43613 -118.27009 -37.44781 8.04214 126.68097 13.69368 37.12833 -139.09126 20.07965 -28.23146 -8.2351 110.48281 2.73839 0.21184 -147.07827 22.288 -33.11674 -13.00583
0.01406 -0.40411 0.11187 65.47072 -23.17737 -20.19507 26.15314 11.98257 -26.78483 15.19389 -11.31263 -2.10617 141.16087 -2.41404 55.63329 20.14163 52.92344 44.39813 -5.85923 74.65561 -14.80573 -20.48607 65.56088 -118.90796 -37.0569 8.1923 126.68097 13.69369 37.12738 -139.11975 19.73007 -27.26235 -9.29988 111.17245 2.82071 0.53271 -147.07827 22.28799 -33.11676 -13.00584
0.01511 -0.40414 0.11219 65.55791 -23.13399 -20.13423 26.22152 11.7365 -26.91572 14.74847 -11.47378 -2.1062 141.21758 -2.29954 55.63344 20.02473 53.62418 44.69995 -5.76747 74.41376 -14.58003 -20.65638 65.94041 -118.2207 -36.51392 8.12283 126.68097 13.69369 37.12769 -139.24079 19.94101 -27.74969 -8.96128 111.34419 3.13415 -2.57341 -147.07827 22.28781 -33.11644 -13.0057
0.01627 -0.40429 0.11215 65.59926 -23.02029 -20.01973 26.32101 11.39666 -26.96005 14.18088 -11.69853 -2.10624 141.16314 -2.0893 55.63365 19.69628 54.4682 45.05345 -5.65878 74.29189 -14.21591 -20.99713 66.02994 -117.11269 -35.93924 7.98235 126.68097 13.69369 37.12772 -139.39667 20.33631 -28.69245 -8.14637 111.31273 3.53173 -6.84371 -147.07827 22.28757 -33.11601 -13.0055
0.01735 -0.40437 0.11226 65.65641 -22.93703 -19.92812 26.40805 11.1068 -27.03575 13.67294 -11.89565 -2.10628 141.161 -1.91414 55.6338 19.46999 55.22367 45.38514 -5.55869 74.10616 -13.9249 -21.2397 66.26751 -116.23866 -35.39276 7.8805 126.68097 13.69369 37.12761 -139.53643 20.62853 -29.37821 -7.58874 111.35601 3.88452 -10.44246 -147.07827 22.28736 -33.11565 -13.00534
0.01856 -0.40448 0.11245 65.73363 -22.85801 -19.84409 26.4856 10.78567 -27.14778 13.14729 -12.09042 -2.10632 141.15201 -1.77227 55.63401 19.21579 56.08079 45.70712 -5.45401 73.96476 -13.59502 -21.5595 66.4237 -115.20226 -34.79381 7.75465 126.68097 13.69369 37.12769 -139.67858 20.99792 -30.25227 -6.86721 111.47273 4.26719 -14.65053 -147.07827 22.28711 -33.1152 -13.00514
0.01953 -0.40458 0.11238 65.75884 -22.75481 -19.73186 26.59103 10.50746 -27.16349 12.6307 -12.30311 -2.10636 141.12994 -1.5408 55.63413 18.97079 56.75924 46.06252 -5.3556 73.7601 -13.3118 -21.76437 66.68069 -114.39673 -34.29559 7.66063 126.68097 13.69368 37.12766 -139.82321 21.253 -30.85211 -6.36701 111.38974 4.60745 -17.87077 -147.07827 22.28694 -33.11491 -13.00501
0.01982 -0.4046 0.11165 65.64894 -22.59534 -19.54471 26.76813 10.37091 -26.92284 12.15602 -12.56138 -2.10641 141.10738 -1.06552 55.634 18.79822 56.90895 46.49831 -5.27306 73.32067 -13.18914 -21.59137 67.34485 -114.33669 -34.06837 7.67447 126.68097 13.69372 37.12766 -139.9707 21.13484 -30.57051 -6.64151 110.79005 4.80131 -17.9806 -147.07827 22.28708 -33.11515 -13.00515
0.01987 -0.4046 0.11066 65.48902 -22.41536 -19.33248 26.97212 10.28074 -26.58987 11.69718 -12.8333 -2.10647 141.0739 -0.50711 55.63378 18.64307 56.87395 46.96586 -5.19839 72.81789 -13.118 -21.30148 68.11193 -114.51986 -33.94518 7.72195 126.68097 13.69365 37.12767 -140.11862 20.89785 -30.00273 -7.14663 109.99905 4.95069 -17.07158 -147.07827 22.28729 -33.11554 -13.00536
0.02003 -0.40461 0.1098 65.35377 -22.24947 -19.13829 27.16272 10.16926 -26.30624 11.23922 -13.09073 -2.10652 141.03994 0.0001 55.63361 18.48377 56.92285 47.41924 -5.12397 72.36341 -13.02407 -21.0788 68.7969 -114.58616 -33.78337 7.75202 126.68097 13.69369 37.12766 -140.26311 20.72421 -29.57746 -7.51374 109.30539 5.12578 -16.6913 -147.07827 22.28744 -33.1158 -13.0055
0.02019 -0.40461 0.10889 65.20829 -22.06122 -18.91484 27.35946 10.05564 -25.98852 10.74203 -13.38431 -2.10658 141.02523 0.56711 55.6334 18.30246 56.97546 47.87475 -5.03326 71.83167 -12.92276 -20.8028 69.62184 -114.66575 -33.58486 7.78871 126.68097 13.69385 37.12767 -140.42203 20.51841 -29.11506 -8.00119 108.56091 5.28097 -16.07623 -147.07827 22.28772 -33.11632 -13.00578
0.0203 -0.40463 0.10803 65.07338 -21.91526 -18.74627 27.54921 9.95854 -25.72094 10.33299 -13.60637 -2.10663 140.9691 1.02834 55.63324 18.17227 56.9765 48.33084 -4.97798 71.44326 -12.85083 -20.60741 70.18196 -114.77972 -33.48686 7.82042 126.68097 13.69326 37.12767 -140.55112 20.34782 -28.65622 -8.30309 107.87932 5.46557 -15.69084 -147.07827 22.28774 -33.11635 -13.00579
0.02032 -0.4047 0.10738 64.97549 -21.89445 -18.74258 27.71456 9.89768 -25.61501 10.15499 -13.61516 -2.10666 140.80335 1.17421 55.63326 18.19395 56.86322 48.79645 -5.02374 71.47376 -12.8481 -20.66734 70.00098 -114.94015 -33.64994 7.83115 126.68097 13.69428 37.12766 -140.59246 20.31318 -28.27657 -8.00179 107.42063 5.74485 -16.20011 -147.07826 22.28693 -33.11485 -13.00497
0.02029 -0.40479 0.1068 64.89096 -21.91667 -18.794 27.87145 9.85204 -25.563 10.06751 -13.5534 -2.10668 140.5965 1.21081 55.63332 18.26472 56.70695 49.25825 -5.10402 71.6488 -12.87377 -20.81094 69.54862 -115.12696 -33.90928 7.83588 126.68097 13.69365 37.12766 -140.60447 20.3158 -27.90901 -7.51395 107.03237 6.05429 -16.967 -147.07826 22.28586 -33.11289 -13.00389
0.02028 -0.40487 0.10618 64.80351 -21.91731 -18.8156 28.03115 9.79853 -25.48632 9.94457 -13.53186 -2.1067 140.40766 1.29887 55.63336 18.30432 56.5808 49.7114 -5.16521 71.75184 -12.8866 -20.91253 69.21188 -115.29631 -34.11848 7.84305 126.68096 13.69159 37.12766 -140.63336 20.29352 -27.53321 -7.1373 106.61136 6.34785 -17.60355 -147.07826 22.28498 -33.11125 -13.00299
0.02027 -0.40494 0.10559 64.70121 -21.92563 -18.85602 28.19644 9.75025 -25.40712 9.79748 -13.47673 -2.10672 140.22112 1.38231 55.63341 18.38197 56.40337 50.20999 -5.24098 71.87877 -12.90065 -21.02645 68.91089 -115.4963 -34.35727 7.85254 126.68096 13.6995 37.12765 -140.64778 20.29898 -27.15636 -6.65954 106.18687 6.64933 -18.26408 -147.07826 22.28384 -33.10915 -13.00183
0.02025 -0.40505 0.10496 64.63337 -21.92857 -18.87118 28.3474 9.69452 -25.34715 9.72278 -13.47418 -2.10675 140.02028 1.44832 55.63345 18.39163 56.32521 50.61201 -5.29455 71.99186 -12.91852 -21.1367 68.46994 -115.63648 -34.55722 7.85536 126.68096 13.6853 37.12765 -140.68475 20.25937 -26.79193 -6.34179 105.78863 6.94175 -18.94547 -147.07826 22.28315 -33.10789 -13.00113
0.0202 -0.40527 0.1042 64.66027 -21.90523 -18.79894 28.46345 9.61068 -25.32815 9.81933 -13.63788 -2.10679 139.78939 1.49244 55.63344 18.20336 56.53006 50.75309 -5.27773 72.02474 -12.93756 -21.21122 67.70665 -115.59679 -34.61472 7.84094 126.68096 13.6188 37.12765 -140.79629 20.06622 -26.4274 -6.54013 105.44885 7.20424 -19.65421 -147.07826 22.28388 -33.10923 -13.00187
0.02013 -0.40554 0.1034 64.72111 -21.87526 -18.70031 28.56471 9.51926 -25.32695 9.98666 -13.85613 -2.10684 139.54571 1.52246 55.63343 17.94467 56.83747 50.79608 -5.2375 72.04025 -12.95967 -21.28059 66.81199 -115.49615 -34.63135 7.81988 126.68096 13.52868 37.12766 -140.93055 19.8305 -26.08184 -6.89976 105.13346 7.4562 -20.37372 -147.07826 22.28505 -33.1114 -13.00307
0.02007 -0.40579 0.10263 64.76477 -21.84903 -18.61658 28.67099 9.43358 -25.31738 10.12595 -14.04688 -2.10688 139.30836 1.55885 55.63343 17.71685 57.09998 50.88067 -5.20829 72.06834 -12.98173 -21.35636 65.97826 -115.42795 -34.67396 7.80194 126.68096 13.44373 37.12766 -141.05105 19.62827 -25.75007 -7.16534 104.80575 7.71175 -21.0721 -147.07826 22.28595 -33.11307 -13.004
0.02002 -0.40604 0.10183 64.81625 -21.82124 -18.52237 28.78438 9.33884 -25.31074 10.25144 -14.24672 -2.10693 139.06739 1.59169 55.63342 17.49515 57.35385 50.97766 -5.17849 72.08158 -12.99915 -21.4182 65.12919 -115.34175 -34.6892 7.78349 126.68097 13.38167 37.12766 -141.18507 19.36854 -25.32545 -7.51106 104.48551 7.97388 -21.84828 -147.07827 22.28712 -33.11522 -13.00518
0.01993 -0.4063 0.10107 64.85939 -21.79453 -18.44318 28.87931 9.26088 -25.30165 10.42075 -14.44135 -2.10697 138.83147 1.62992 55.63341 17.24384 57.65041 51.02567 -5.14414 72.11983 -13.02657 -21.50629 64.28532 -115.277 -34.74987 7.76445 126.68097 13.267 37.12766 -141.29668 19.21677 -25.09667 -7.73196 104.15473 8.2188 -22.46059 -147.07827 22.28785 -33.11661 -13.00596
0.01973 -0.40654 0.10044 64.87073 -21.77257 -18.41033 28.92898 9.23179 -25.28028 10.69791 -14.60983 -2.10701 138.61257 1.68748 55.63339 16.92343 58.04188 50.96182 -5.10089 72.23022 -13.08064 -21.67186 63.48137 -115.29643 -34.95045 7.7467 126.68097 13.00734 37.12766 -141.3413 19.38419 -25.42116 -7.55711 103.78805 8.42397 -22.6281 -147.07827 22.28721 -33.11558 -13.00545
0.01949 -0.40679 0.09984 64.87248 -21.75171 -18.39356 28.96027 9.21961 -25.25575 11.01541 -14.77121 -2.10705 138.39939 1.7513 55.63338 16.57634 58.47236 50.85245 -5.05404 72.3658 -13.14452 -21.86287 62.68986 -115.33765 -35.19673 7.72841 126.68097 12.69668 37.12766 -141.36265 19.65961 -25.93883 -7.25414 103.40998 8.61104 -22.62757 -147.07826 22.28612 -33.11379 -13.00453
0.01926 -0.40703 0.09923 64.87892 -21.73001 -18.37015 28.9986 9.1992 -25.23319 11.31136 -14.93523 -2.10709 138.18387 1.81217 55.63337 16.24406 58.88411 50.764 -5.01009 72.49 -13.20397 -22.0394 61.89821 -115.36197 -35.41879 7.70951 126.68097 12.41291 37.12766 -141.39451 19.87833 -26.3568 -7.01844 103.03699 8.80287 -22.69554 -147.07826 22.2853 -33.11246 -13.00385
